<svg width="29" height="28" viewBox="0 0 29 28" fill="none" xmlns="http://www.w3.org/2000/svg">
<path d="M25.5389 21.2619C25.1439 22.1703 24.6764 23.0064 24.1347 23.7752C23.3963 24.8231 22.7917 25.5486 22.3258 25.9514C21.6035 26.6126 20.8297 26.9512 20.001 26.9705C19.4061 26.9705 18.6887 26.802 17.8536 26.4601C17.0157 26.1199 16.2457 25.9514 15.5417 25.9514C14.8033 25.9514 14.0114 26.1199 13.1644 26.4601C12.316 26.802 11.6326 26.9801 11.1101 26.9978C10.3154 27.0315 9.52338 26.6832 8.73276 25.9514C8.22814 25.5132 7.59697 24.7622 6.84085 23.6981C6.02959 22.5619 5.36263 21.2442 4.84011 19.7421C4.28052 18.1195 4 16.5483 4 15.0272C4 13.2848 4.37822 11.782 5.13579 10.5226C5.73117 9.51105 6.52325 8.7131 7.51458 8.12732C8.50592 7.54153 9.57706 7.24302 10.7306 7.22393C11.3618 7.22393 12.1895 7.41828 13.218 7.80024C14.2437 8.18349 14.9023 8.37784 15.191 8.37784C15.4069 8.37784 16.1385 8.15059 17.3788 7.69753C18.5517 7.27737 19.5416 7.1034 20.3525 7.17193C22.5499 7.34846 24.2008 8.21077 25.2987 9.76431C23.3334 10.9497 22.3613 12.6099 22.3806 14.7398C22.3984 16.3988 23.0029 17.7793 24.1911 18.8754C24.7296 19.3842 25.3309 19.7774 26 20.0566C25.8549 20.4755 25.7017 20.8767 25.5389 21.2619ZM20.4992 1.52015C20.4992 2.82044 20.022 4.03453 19.0708 5.15827C17.9229 6.49418 16.5345 7.26613 15.0289 7.14432C15.0097 6.98833 14.9985 6.82415 14.9985 6.65162C14.9985 5.40334 15.5444 4.06743 16.5139 2.97514C16.9978 2.4221 17.6134 1.96225 18.3598 1.59542C19.1046 1.23406 19.8092 1.03422 20.4718 1C20.4911 1.17383 20.4992 1.34767 20.4992 1.52013V1.52015Z" fill="#F3F6FF"/>
</svg>
