<svg width="29" height="28" viewBox="0 0 29 28" fill="none" xmlns="http://www.w3.org/2000/svg">
<path fill-rule="evenodd" clip-rule="evenodd" d="M26.7294 14.2953C26.7294 13.3735 26.6467 12.4872 26.493 11.6364H14.25V16.6647H21.246C20.9447 18.2897 20.0288 19.6664 18.6521 20.5882V23.8498H22.8532C25.3113 21.5868 26.7294 18.2542 26.7294 14.2953Z" fill="#4285F4"/>
<path fill-rule="evenodd" clip-rule="evenodd" d="M14.2515 26.999C17.7613 26.999 20.7039 25.8349 22.8547 23.8496L18.6535 20.5879C17.4895 21.3679 16.0005 21.8288 14.2515 21.8288C10.8657 21.8288 7.99995 19.5421 6.97773 16.4695H2.63477V19.8375C4.77375 24.0859 9.16989 26.999 14.2515 26.999Z" fill="#34A853"/>
<path fill-rule="evenodd" clip-rule="evenodd" d="M6.9766 16.4698C6.71661 15.6898 6.56889 14.8567 6.56889 13.9999C6.56889 13.1431 6.71661 12.31 6.9766 11.53V8.16199H2.63363C1.75322 9.9169 1.25098 11.9023 1.25098 13.9999C1.25098 16.0975 1.75322 18.0829 2.63363 19.8378L6.9766 16.4698Z" fill="#FBBC05"/>
<path fill-rule="evenodd" clip-rule="evenodd" d="M14.2515 6.17142C16.16 6.17142 17.8735 6.82729 19.2208 8.11541L22.9492 4.38696C20.698 2.28934 17.7554 1.00122 14.2515 1.00122C9.16989 1.00122 4.77375 3.91426 2.63477 8.16268L6.97773 11.5307C7.99995 8.45812 10.8657 6.17142 14.2515 6.17142Z" fill="#EA4335"/>
</svg>
