<svg width="19" height="21" viewBox="0 0 19 21" fill="none" xmlns="http://www.w3.org/2000/svg">
<path d="M1.5 12V9C1.5 6.87827 2.34285 4.84344 3.84315 3.34315C5.34344 1.84285 7.37827 1 9.5 1C11.6217 1 13.6566 1.84285 15.1569 3.34315C16.6571 4.84344 17.5 6.87827 17.5 9V12M1.5 12C1.5 11.4696 1.71071 10.9609 2.08579 10.5858C2.46086 10.2107 2.96957 10 3.5 10H4.5C5.03043 10 5.53914 10.2107 5.91421 10.5858C6.28929 10.9609 6.5 11.4696 6.5 12V15C6.5 15.5304 6.28929 16.0391 5.91421 16.4142C5.53914 16.7893 5.03043 17 4.5 17H3.5C2.96957 17 2.46086 16.7893 2.08579 16.4142C1.71071 16.0391 1.5 15.5304 1.5 15V12ZM17.5 12C17.5 11.4696 17.2893 10.9609 16.9142 10.5858C16.5391 10.2107 16.0304 10 15.5 10H14.5C13.9696 10 13.4609 10.2107 13.0858 10.5858C12.7107 10.9609 12.5 11.4696 12.5 12V15C12.5 15.5304 12.7107 16.0391 13.0858 16.4142C13.4609 16.7893 13.9696 17 14.5 17H15.5M17.5 12V15C17.5 15.5304 17.2893 16.0391 16.9142 16.4142C16.5391 16.7893 16.0304 17 15.5 17M15.5 17C15.5 18.657 12.814 20 9.5 20" stroke="#899099" stroke-width="1.5" stroke-linecap="round" stroke-linejoin="round"/>
</svg>
