<svg width="29" height="28" viewBox="0 0 29 28" fill="none" xmlns="http://www.w3.org/2000/svg">
<path d="M12.2613 6.20117C12.0829 6.20116 11.9103 6.26485 11.7746 6.38077C11.6389 6.49668 11.549 6.65722 11.5212 6.8335L10.2911 14.6335L9.16084 21.8007L9.16016 21.8067L9.16152 21.8007L10.2917 14.6335C10.3492 14.2692 10.6628 14.0012 11.0315 14.0012H14.6352C18.2619 14.0012 21.3402 11.3552 21.9023 7.76963C21.9452 7.49721 21.9681 7.22739 21.9733 6.96111V6.9607H21.9729C21.0512 6.47714 19.9689 6.20117 18.783 6.20117H12.2613Z" fill="#001C64"/>
<path d="M21.9738 6.96094C21.9687 7.22722 21.9455 7.49731 21.9028 7.76973C21.3406 11.3553 18.2624 14.0013 14.6356 14.0013H11.0319C10.6633 14.0013 10.3497 14.2693 10.2922 14.6336L9.162 21.8008L8.45271 26.2975C8.43904 26.3844 8.44436 26.4732 8.46829 26.5578C8.49222 26.6424 8.5342 26.7208 8.59133 26.7877C8.64846 26.8545 8.7194 26.9082 8.79925 26.945C8.87911 26.9818 8.96598 27.0008 9.05391 27.0008H12.9655C13.144 27.0008 13.3166 26.9372 13.4523 26.8212C13.5879 26.7053 13.6778 26.5448 13.7057 26.3685L14.7361 19.8336C14.7938 19.4693 15.1076 19.2008 15.4762 19.2008H17.7795C21.4063 19.2008 24.4841 16.555 25.0463 12.9697C25.4453 10.4245 24.1645 8.10903 21.9738 6.96094Z" fill="#0070E0"/>
<path d="M7.81697 1C7.63845 1.00001 7.46579 1.06375 7.3301 1.17975C7.19441 1.29575 7.10459 1.45639 7.07682 1.63274L4.00746 21.0963C3.99373 21.1832 3.999 21.272 4.0229 21.3566C4.0468 21.4413 4.08877 21.5198 4.14591 21.5867C4.20305 21.6535 4.27401 21.7072 4.35389 21.7441C4.43378 21.7809 4.5207 21.8 4.60867 21.8H9.16051L10.2907 14.6327L11.5208 6.83273C11.5487 6.65646 11.6386 6.49592 11.7742 6.38C11.9099 6.26408 12.0825 6.20039 12.261 6.2004H18.7824C19.9686 6.2004 21.0509 6.47678 21.9727 6.95966C22.0355 3.6954 19.342 1 15.6382 1H7.81697Z" fill="#003087"/>
</svg>
