<svg width="224" height="201" viewBox="0 0 224 201" fill="none" xmlns="http://www.w3.org/2000/svg">
<g clip-path="url(#clip0_4446_13314)">
<rect width="224" height="201" rx="12" fill="#475968" fill-opacity="0.2"/>
<g filter="url(#filter0_f_4446_13314)">
<path d="M-45.114 201.901C-52.3933 185.314 -61.0655 -19.0519 15.7458 -52.7626C92.5572 -86.4732 217.317 -53.1352 224.596 -36.5489C231.875 -19.9626 115.011 -30.5838 38.2001 3.12684C-38.6112 36.8375 -37.8346 218.487 -45.114 201.901Z" fill="#57C8FF"/>
</g>
<path d="M110.335 127.739C109.501 127.473 108.751 126.991 108.161 126.344C107.571 125.696 107.162 124.905 106.975 124.049C106.783 123.258 106.407 122.523 105.878 121.904C105.348 121.285 104.68 120.8 103.928 120.489C103.176 120.177 102.361 120.047 101.549 120.11C100.737 120.173 99.9513 120.427 99.256 120.851C94.627 123.671 89.326 118.373 92.146 113.741C92.5693 113.046 92.8227 112.261 92.8855 111.45C92.9483 110.638 92.8187 109.824 92.5074 109.072C92.1961 108.32 91.7118 107.652 91.0938 107.123C90.4759 106.593 89.7417 106.217 88.951 106.025C83.683 104.747 83.683 97.253 88.951 95.975C89.7424 95.7832 90.4773 95.4073 91.096 94.8779C91.7147 94.3484 92.1996 93.6803 92.5112 92.928C92.8229 92.1758 92.9526 91.3605 92.8896 90.5486C92.8267 89.7368 92.5729 88.9513 92.149 88.256C89.329 83.627 94.627 78.326 99.259 81.146C102.259 82.97 106.147 81.356 106.975 77.951C108.253 72.683 115.747 72.683 117.025 77.951C117.217 78.7424 117.593 79.4773 118.122 80.096C118.652 80.7147 119.32 81.1996 120.072 81.5112C120.824 81.8229 121.639 81.9526 122.451 81.8896C123.263 81.8267 124.049 81.5729 124.744 81.149C129.373 78.329 134.674 83.627 131.854 88.259C131.431 88.954 131.177 89.739 131.115 90.5503C131.052 91.3616 131.181 92.1763 131.493 92.9281C131.804 93.68 132.288 94.3477 132.906 94.8772C133.524 95.4066 134.258 95.7827 135.049 95.975C138.979 96.929 139.978 101.345 138.04 104.057M121 122L127 128L139 116M103 101C103 103.387 103.948 105.676 105.636 107.364C107.324 109.052 109.613 110 112 110C114.387 110 116.676 109.052 118.364 107.364C120.052 105.676 121 103.387 121 101C121 98.6131 120.052 96.3239 118.364 94.636C116.676 92.9482 114.387 92 112 92C109.613 92 107.324 92.9482 105.636 94.636C103.948 96.3239 103 98.6131 103 101Z" stroke="#57C8FF" stroke-width="1.5" stroke-linecap="round" stroke-linejoin="round"/>
</g>
<rect x="0.75" y="0.75" width="222.5" height="199.5" rx="11.25" stroke="url(#paint0_linear_4446_13314)" stroke-width="1.5"/>
<defs>
<filter id="filter0_f_4446_13314" x="-79.6982" y="-97.2803" width="334.619" height="330.249" filterUnits="userSpaceOnUse" color-interpolation-filters="sRGB">
<feFlood flood-opacity="0" result="BackgroundImageFix"/>
<feBlend mode="normal" in="SourceGraphic" in2="BackgroundImageFix" result="shape"/>
<feGaussianBlur stdDeviation="15" result="effect1_foregroundBlur_4446_13314"/>
</filter>
<linearGradient id="paint0_linear_4446_13314" x1="31.2308" y1="15.4616" x2="247.008" y2="70.4809" gradientUnits="userSpaceOnUse">
<stop stop-color="#55D0FF"/>
<stop offset="1" stop-color="#090808"/>
</linearGradient>
<clipPath id="clip0_4446_13314">
<rect width="224" height="201" rx="12" fill="white"/>
</clipPath>
</defs>
</svg>
