<svg width="295" height="231" viewBox="0 0 295 231" fill="none" xmlns="http://www.w3.org/2000/svg">
<path d="M34 44C34 37.3726 39.3726 32 46 32H57C63.6274 32 69 26.6274 69 20V15C69 8.37259 74.3726 3 81 3H214C220.627 3 226 8.37258 226 15V20C226 26.6274 231.373 32 238 32H249C255.627 32 261 37.3726 261 44V106V120.5V140C261 146.627 266.373 152 273 152H283C289.627 152 295 157.373 295 164V219C295 225.627 289.627 231 283 231H12C5.37258 231 0 225.627 0 219V164C0 157.373 5.37258 152 12 152H22C28.6274 152 34 146.627 34 140V106V80.5V44Z" fill="url(#paint0_linear_11075_1529)"/>
<path fill-rule="evenodd" clip-rule="evenodd" d="M20 32C29.6382 32.9509 34.5943 36.9677 34 46L47 32C38.9163 31.683 31.3782 27.8257 32 18L20 32Z" fill="#243440"/>
<rect width="32" height="32" rx="6" fill="#243440"/>
<defs>
<linearGradient id="paint0_linear_11075_1529" x1="-28.4999" y1="46.5001" x2="65.201" y2="-85.9328" gradientUnits="userSpaceOnUse">
<stop stop-color="#1B2128"/>
<stop offset="0.929043" stop-color="#3B6078"/>
</linearGradient>
</defs>
</svg>
