<svg width="23" height="28" viewBox="0 0 23 28" fill="none" xmlns="http://www.w3.org/2000/svg">
<path d="M22.3265 21.4573C21.9207 22.3948 21.4404 23.2577 20.8839 24.0511C20.1253 25.1327 19.5042 25.8814 19.0255 26.2971C18.2834 26.9795 17.4884 27.329 16.6371 27.3489C16.0259 27.3489 15.2888 27.175 14.4308 26.8222C13.57 26.471 12.779 26.2971 12.0557 26.2971C11.2971 26.2971 10.4835 26.471 9.61323 26.8222C8.74167 27.175 8.03955 27.3588 7.50274 27.377C6.68633 27.4118 5.87258 27.0524 5.06031 26.2971C4.54188 25.8449 3.89343 25.0698 3.11661 23.9716C2.28315 22.7989 1.59793 21.4391 1.06111 19.8888C0.486199 18.2142 0.197998 16.5927 0.197998 15.0228C0.197998 13.2245 0.586573 11.6736 1.36488 10.3738C1.97656 9.32986 2.79032 8.50633 3.80879 7.90177C4.82727 7.29721 5.92773 6.98914 7.11284 6.96943C7.76129 6.96943 8.61165 7.17001 9.66839 7.56421C10.7221 7.95974 11.3988 8.16033 11.6954 8.16033C11.9172 8.16033 12.6688 7.92579 13.943 7.45821C15.148 7.02458 16.165 6.84504 16.9981 6.91576C19.2557 7.09796 20.9518 7.9879 22.0798 9.59123C20.0607 10.8146 19.0619 12.5281 19.0818 14.7262C19.1 16.4383 19.7211 17.8631 20.9419 18.9944C21.4951 19.5194 22.1129 19.9252 22.8003 20.2134C22.6512 20.6457 22.4938 21.0598 22.3265 21.4573ZM17.1489 1.08284C17.1489 2.42481 16.6586 3.67781 15.6814 4.83757C14.502 6.21629 13.0756 7.01299 11.5288 6.88727C11.5091 6.72628 11.4976 6.55684 11.4976 6.37878C11.4976 5.09049 12.0585 3.71176 13.0544 2.58447C13.5516 2.0137 14.184 1.53911 14.9509 1.16052C15.7161 0.787582 16.44 0.581339 17.1207 0.546021C17.1406 0.725421 17.1489 0.904833 17.1489 1.08282V1.08284Z" fill="#F3F6FF"/>
</svg>
