<svg width="1360" height="525" viewBox="0 0 1360 525" fill="none" xmlns="http://www.w3.org/2000/svg">
<path d="M473 58C473 49.1634 480.163 42 489 42H681C685.971 42 690 37.9706 690 33C690 28.0294 694.029 24 699 24H742C746.971 24 751 28.0294 751 33C751 37.9706 755.029 42 760 42H871C879.837 42 887 49.1634 887 58V328.5C887 335.404 881.404 341 874.5 341C867.596 341 862 346.596 862 353.5V395.5C862 402.404 867.596 408 874.5 408C881.404 408 887 413.596 887 420.5V467C887 475.837 879.837 483 871 483H489C480.163 483 473 475.837 473 467V201.143C473 193.884 467.116 188 459.857 188C454.413 188 450 183.587 450 178.143V149.857C450 144.413 454.413 140 459.857 140C467.116 140 473 134.116 473 126.857V58Z" fill="#475968" fill-opacity="0.2"/>
<path d="M904 58C904 49.1634 911.163 42 920 42H1121H1147.5H1168H1182H1302C1310.84 42 1318 49.1634 1318 58V231V251.5V280V298V467C1318 475.837 1310.84 483 1302 483H920C911.163 483 904 475.837 904 467V411.143C904 403.884 898.116 398 890.857 398C885.413 398 881 393.587 881 388.143V359.857C881 354.413 885.413 350 890.857 350C898.116 350 904 344.116 904 336.857V58Z" fill="#475968" fill-opacity="0.2"/>
<path fill-rule="evenodd" clip-rule="evenodd" d="M1318 18C1316.42 34.2167 1310 43 1295 42L1318 66C1318.53 52.3989 1324.68 40.9538 1341 42L1318 18Z" fill="#1A202B"/>
<path d="M1352 0C1356.42 -1.93129e-07 1360 3.58172 1360 8V34C1360 38.4183 1356.42 42 1352 42H1326C1321.58 42 1318 38.4183 1318 34V8C1318 3.58172 1321.58 1.32962e-06 1326 1.1365e-06L1352 0Z" fill="#1A202B"/>
<path d="M42 58C42 49.1634 49.1634 42 58 42H440C448.837 42 456 49.1634 456 58V117.5C456 124.404 450.404 130 443.5 130C436.596 130 431 135.596 431 142.5V184.5C431 191.404 436.596 197 443.5 197C450.404 197 456 202.596 456 209.5V467C456 475.837 448.837 483 440 483H58C49.1634 483 42 475.837 42 467V58Z" fill="#475968" fill-opacity="0.2"/>
<path fill-rule="evenodd" clip-rule="evenodd" d="M42 507C43.5791 490.783 50 482 65 483L42 459C41.4736 472.601 35.3176 484.046 19 483L42 507Z" fill="#1B1E2D"/>
<path d="M8 525C3.58172 525 1.32963e-06 521.418 1.1365e-06 517L0 491C-1.93129e-07 486.582 3.58172 483 8 483H34C38.4183 483 42 486.582 42 491V517C42 521.418 38.4183 525 34 525H8Z" fill="#1B1E2D"/>
</svg>
