<svg width="288" height="42" viewBox="0 0 288 42" fill="none" xmlns="http://www.w3.org/2000/svg">
<path d="M15.8362 0.579144C14.8798 0.662308 13.1229 1.05733 12.125 1.40039C6.37627 3.38593 2.18688 8.17825 1.06417 14.0205C0.81468 15.3303 0.81468 18.054 1.05378 19.3742C2.28044 25.9961 7.43661 31.1835 14.2249 32.6388C15.1501 32.8467 15.6283 32.8779 17.3955 32.8779C20.2231 32.8779 22.0007 32.5661 23.9966 31.7032C25.6807 30.9756 26.6059 30.3206 28.2068 28.7301C30.2131 26.7446 31.1279 25.2996 31.8452 23.0126C32.4482 21.079 32.5625 20.2578 32.5625 17.8668C32.5625 16.4427 32.5209 15.6422 32.4378 15.4447L32.313 15.164H24.8283H17.3435V17.6589V20.1538H22.6556H27.9677L27.8949 20.5905C27.7806 21.3389 27.4167 22.5656 27.1153 23.2309C26.6787 24.1873 26.0861 25.0085 25.2233 25.8298C23.7991 27.1812 22.2606 28.044 20.379 28.543C19.4642 28.7925 19.1835 28.8133 17.4475 28.8237C15.6906 28.8237 15.4411 28.8029 14.5055 28.543C12.5512 28.0128 10.8567 27.0565 9.38056 25.6427C8.3722 24.6759 7.64452 23.6467 7 22.3161C3.7566 15.5279 7.41582 7.45056 14.6199 5.5274C15.4931 5.2883 15.8466 5.25711 17.2915 5.24672C18.2999 5.24672 19.2043 5.2883 19.5785 5.37146C21.3042 5.7457 22.9467 6.49418 24.3501 7.53373L25.2753 8.21983L26.8346 6.6605L28.3939 5.10118L27.3648 4.29033C24.9114 2.33598 22.718 1.26525 20.1399 0.766262C19.3083 0.610329 16.751 0.495979 15.8362 0.579144Z" fill="#5E6973"/>
<path d="M102.379 16.7233V32.6284H104.718H107.057V16.7233V0.818222H104.718H102.379V16.7233Z" fill="#5E6973"/>
<path d="M246.46 3.42758C245.712 3.72905 244.963 4.66464 244.849 5.4443C244.703 6.39029 245.275 7.40905 246.242 7.90803C246.98 8.29267 247.666 8.30306 248.425 7.92882C250.681 6.79572 249.87 3.29244 247.354 3.32362C247.001 3.32362 246.606 3.3756 246.46 3.42758Z" fill="#5E6973"/>
<path d="M147.194 4.34215C147.079 4.55006 136.58 32.1605 136.58 32.254C136.58 32.2852 137.484 32.3164 138.586 32.3164H140.582L141.934 28.5428L143.295 24.7797L149.221 24.7485L155.157 24.7277L155.895 26.7756C156.31 27.9087 156.913 29.6032 157.256 30.5492L157.87 32.2644L159.907 32.2956L161.945 32.3164L161.737 31.7758C161.623 31.4744 159.221 25.1435 156.394 17.7107L151.258 4.19661L149.273 4.18621C147.526 4.17582 147.266 4.18621 147.194 4.34215ZM149.273 21.2764C146.736 21.2868 144.636 21.2868 144.616 21.266C144.595 21.2452 145.593 18.3865 146.83 14.9144L149.086 8.6043L151.487 14.9248L153.899 21.2452L149.273 21.2764Z" fill="#5E6973"/>
<path d="M204.878 18.2513V32.3164H206.749H208.621L208.6 18.2513L208.569 4.19661L206.729 4.18621L204.878 4.17582V18.2513Z" fill="#5E6973"/>
<path d="M234.089 9.8416V12.7212H232.301H230.503V14.5923V16.4635H232.27L234.038 16.4739L234.058 16.8793C234.079 17.108 234.1 19.5406 234.121 22.285C234.152 26.6511 234.173 27.3684 234.339 28.0545C234.765 29.8113 235.555 30.9133 236.875 31.5578L237.666 31.9528L240.192 31.984C242.24 32.0152 242.718 31.9944 242.718 31.88C242.707 31.8073 242.583 31.1835 242.427 30.4974L242.136 29.25L241.023 29.1772C239.62 29.094 238.996 28.8861 238.528 28.3768C237.873 27.6595 237.884 27.7114 237.884 21.8172V16.4739L239.963 16.4635H242.042V14.5923V12.7212H239.942H237.832V9.8416V6.95166H235.961H234.089V9.8416Z" fill="#5E6973"/>
<path d="M86.9932 11.6817C83.2509 12.4405 80.2674 15.3721 79.2278 19.3015C78.9991 20.1748 78.9575 20.5178 78.9575 21.9212C78.9575 23.3246 78.9991 23.6677 79.2278 24.5409C80.049 27.6595 81.993 30.0505 84.7582 31.3811C86.3175 32.1192 86.8893 32.2543 88.6045 32.2647C89.8416 32.2647 90.1743 32.2335 90.8396 32.0256C91.9311 31.6826 92.8979 31.1524 93.6256 30.4871C93.9686 30.1752 94.3117 29.9257 94.3844 29.9257C94.5611 29.9257 94.4364 32.5558 94.2181 33.4498C93.6048 35.9551 91.7232 37.4105 89.0723 37.4209C87.9912 37.4209 87.0764 37.161 86.2032 36.5996C85.4547 36.1111 84.5087 35.0923 84.1137 34.3334C83.9058 33.928 83.781 33.7929 83.6667 33.8344C83.5835 33.8656 82.7831 34.1775 81.8994 34.5205C81.0158 34.8636 80.1842 35.1859 80.049 35.2378L79.8203 35.3314L80.1426 35.9759C81.0574 37.8055 82.9078 39.6351 84.7374 40.5083C86.3279 41.2776 87.6274 41.5167 89.6753 41.4335C92.4093 41.3192 94.426 40.5499 96.0685 38.9802C97.1704 37.9407 97.8773 36.7868 98.4283 35.1443C99.0936 33.1587 99.0832 33.3043 99.1248 21.89L99.1664 11.5257H96.9833H94.7899V12.7212C94.7899 14.1142 94.7587 14.1454 93.9894 13.4801C92.4613 12.1598 90.694 11.5153 88.6357 11.5361C88.1056 11.5361 87.3675 11.6089 86.9932 11.6817ZM90.7564 16.0997C92.586 16.6611 94.0206 18.3036 94.5404 20.4139C94.7795 21.3599 94.7795 23.0855 94.5508 24.0315C94.2077 25.4453 93.3345 26.8175 92.2845 27.5868C91.4425 28.2105 90.6732 28.4808 89.5817 28.5431C88.0744 28.6367 86.8685 28.1585 85.7354 27.0254C84.4359 25.7156 83.7914 23.9067 83.9058 21.8173C83.9993 19.9253 84.5399 18.657 85.7458 17.4512C86.8685 16.318 87.8041 15.9126 89.2906 15.9022C89.8104 15.8918 90.3198 15.9646 90.7564 16.0997Z" fill="#5E6973"/>
<path d="M42.6981 11.9312C38.1761 12.7629 35.0054 15.9023 34.2362 20.31C33.9451 22.0148 34.0802 24.0628 34.6104 25.6637C35.494 28.3769 37.3028 30.404 39.9121 31.6307C41.4714 32.3584 42.4486 32.5663 44.4237 32.5767C46.4093 32.5767 47.3657 32.3791 48.925 31.6411C52.5218 29.9362 54.6945 26.6408 54.84 22.649C55.0375 17.6072 52.1164 13.5113 47.3865 12.2015C46.5652 11.9728 46.1286 11.9208 44.7876 11.8896C43.904 11.8688 42.958 11.8896 42.6981 11.9312ZM46.139 16.1206C48.0518 16.7339 49.5487 18.3972 50.0269 20.4659C50.2348 21.3391 50.2348 23.1272 50.0269 24.0004C49.2784 27.2022 46.1806 29.1981 43.1763 28.4185C41.118 27.8779 39.4131 26.0067 38.9037 23.7301C38.675 22.6905 38.7478 20.9961 39.0597 20.1229C39.7354 18.1997 41.0036 16.8379 42.6877 16.2038C43.7272 15.8087 45.0787 15.7775 46.139 16.1206Z" fill="#5E6973"/>
<path d="M65.4746 11.9103C64.6846 12.035 63.6554 12.3261 62.8758 12.638C59.622 13.9686 57.3765 16.8377 56.7944 20.4138C56.0459 24.9982 58.1562 29.4267 62.0441 31.4226C66.8884 33.9175 72.8346 32.431 75.7246 27.9921C76.4523 26.8902 76.972 25.6219 77.2319 24.3745C77.4814 23.1582 77.5022 20.8088 77.2631 19.6549C76.4627 15.7358 73.2193 12.7211 69.0195 11.9934C68.2398 11.8479 66.1295 11.8063 65.4746 11.9103ZM68.9467 16.2036C70.163 16.6194 71.3585 17.6694 72.003 18.8857C73.0114 20.7776 73.0114 23.678 72.003 25.5907C71.5664 26.4224 70.4852 27.5035 69.6744 27.9297C65.7553 29.9776 61.3164 26.9526 61.3164 22.233C61.3164 17.8669 65.1004 14.8834 68.9467 16.2036Z" fill="#5E6973"/>
<path d="M116.995 11.9932C113.668 12.6793 111.069 14.8728 109.863 17.981C109.312 19.426 109.115 20.715 109.167 22.5447C109.209 23.8961 109.261 24.3015 109.489 25.0915C110.591 28.7612 113.232 31.3392 116.932 32.3268C118.221 32.6699 120.737 32.6803 122.078 32.3372C123.305 32.0253 124.885 31.2561 125.945 30.4556C126.704 29.8839 128.367 28.231 128.367 28.0543C128.367 28.0127 127.536 27.4305 126.527 26.7548L124.687 25.5386L124.49 25.8296C124.376 25.996 123.929 26.4845 123.492 26.9212C122.068 28.3349 120.342 28.8547 118.273 28.4701C117.515 28.3349 116.371 27.7528 115.716 27.1706C115.155 26.6821 114.375 25.6945 114.469 25.6009C114.5 25.5697 117.618 24.2599 121.402 22.7006C125.186 21.1309 128.305 19.8314 128.326 19.8106C128.409 19.7379 127.026 16.9311 126.559 16.2034C125.301 14.2594 123.315 12.7313 121.278 12.1388C120.29 11.8581 118.045 11.7749 116.995 11.9932ZM120.748 16.0995C121.247 16.2554 121.787 16.5672 122.161 16.9207C122.494 17.2222 123.066 18.0018 123.066 18.1578C123.066 18.2617 113.824 22.1704 113.751 22.108C113.679 22.0249 113.907 20.4344 114.084 19.8418C114.926 16.9207 117.962 15.2158 120.748 16.0995Z" fill="#5E6973"/>
<path d="M260.39 12.0036C256.814 12.7625 254.059 15.4965 253.113 19.2285C251.627 25.0604 254.714 30.8922 260.078 32.3788C261.024 32.6387 263.488 32.6491 264.444 32.3788C266.066 31.9318 267.864 30.8195 268.904 29.6136C269.393 29.0315 270.474 27.3682 270.474 27.1811C270.474 27.0771 267.459 25.1955 267.407 25.2683C267.397 25.2891 267.272 25.5178 267.116 25.7777C266.097 27.5553 264.361 28.7404 262.573 28.8547C261.014 28.9691 259.569 28.3973 258.415 27.2226C257.126 25.9024 256.523 24.3223 256.513 22.2328C256.513 21.3076 256.565 20.8502 256.741 20.2057C257.511 17.4301 259.704 15.5797 262.22 15.5797C264.268 15.5797 266.128 16.8687 267.147 18.9894L267.417 19.53L268.914 18.48C269.746 17.8979 270.442 17.4093 270.474 17.3781C270.567 17.2949 269.902 16.1618 269.309 15.351C267.989 13.6045 266.056 12.3883 263.956 11.9829C262.989 11.8061 261.284 11.8061 260.39 12.0036Z" fill="#5E6973"/>
<path d="M278.239 12.3159C275.817 12.8565 274.206 14.1871 273.478 16.2662C273.208 17.0459 273.104 18.5532 273.27 19.3433C273.665 21.2041 275.069 22.5243 277.491 23.3144C277.948 23.4599 279.164 23.7926 280.193 24.0524C282.356 24.593 283.478 25.092 283.863 25.6533C284.144 26.09 284.175 26.9424 283.925 27.6701C283.718 28.273 282.938 29.0111 282.241 29.2398C281.046 29.6556 279.487 29.5517 278.353 28.9799C277.719 28.6576 276.68 27.7428 276.087 26.9736C275.89 26.7137 275.661 26.5266 275.588 26.5474C275.516 26.5681 274.871 27.0463 274.154 27.6077L272.844 28.6265L273.8 29.5309C275.661 31.2877 277.626 32.452 279.268 32.795C279.871 32.9198 280.381 32.951 281.181 32.9094C283.333 32.7846 284.986 32.1505 286.16 30.9758C287.325 29.8219 287.834 28.5641 287.845 26.8592C287.855 24.8425 287.221 23.5742 285.682 22.5451C284.747 21.9214 283.811 21.5575 281.441 20.8922C279.383 20.3309 278.8 20.1022 278.125 19.6344C277.272 19.0522 276.992 17.9087 277.449 16.9523C277.927 15.9647 279.102 15.5177 280.942 15.6113C282.74 15.7049 284.029 16.2246 285.1 17.2954L285.745 17.9399L286.815 16.8588L287.876 15.788L287.366 15.2579C286.327 14.1975 284.404 13.0852 282.636 12.5134C281.888 12.2743 281.535 12.2224 280.349 12.1912C279.351 12.16 278.738 12.2016 278.239 12.3159Z" fill="#5E6973"/>
<path d="M171.914 12.6171C170.563 12.9498 169.107 13.823 168.089 14.9145C167.735 15.2887 167.423 15.5798 167.413 15.5694C167.392 15.5486 167.33 14.9249 167.257 14.1764C167.184 13.4383 167.091 12.8042 167.039 12.773C166.987 12.7418 166.165 12.7211 165.199 12.7211H163.452L163.421 22.524L163.4 32.3166H165.271H167.132L167.163 26.3599L167.195 20.4137L167.475 19.6445C168.026 18.1371 169.014 16.9936 170.324 16.3387C171.01 16.006 171.228 15.9541 172.018 15.9125C174.555 15.7877 176.187 16.9208 176.883 19.291C177.039 19.8212 177.06 20.6528 177.101 26.256L177.133 32.6284H179.004H180.865V26.3599C180.865 18.6361 180.813 18.0747 179.867 16.1204C178.993 14.3116 177.351 13.0225 175.407 12.6171C174.513 12.43 172.694 12.43 171.914 12.6171Z" fill="#5E6973"/>
<path d="M190.324 12.6588C188.079 13.1474 186.125 14.4572 185.158 16.0997C184.607 17.0457 184.555 16.9729 186.416 17.8358C187.331 18.2516 188.079 18.5946 188.1 18.5946C188.11 18.5946 188.235 18.3763 188.37 18.106C189.067 16.7026 190.636 15.8918 192.632 15.8918C195.47 15.8918 197.497 17.6798 197.497 20.1851V20.8504L196.905 20.549C195.709 19.9772 194.202 19.7381 192.04 19.7901C190.896 19.8213 190.366 19.8837 189.545 20.0916C185.958 21.0272 183.869 23.3246 183.838 26.3912C183.827 28.2001 184.378 29.5931 185.595 30.8093C186.884 32.0984 188.578 32.7949 190.688 32.9092C192.476 33.0028 193.942 32.6493 195.377 31.7865C196 31.4123 197.082 30.3831 197.373 29.9049C197.726 29.3124 197.809 29.5203 197.809 30.9653V32.3167H199.524H201.25L201.209 25.5804C201.177 18.1372 201.198 18.4595 200.47 16.8794C199.535 14.8834 197.778 13.4489 195.418 12.7628C194.296 12.4405 191.582 12.3781 190.324 12.6588ZM195.377 23.1686C195.834 23.283 196.489 23.5221 196.853 23.6884C197.477 23.9795 197.497 24.0003 197.497 24.3953C197.497 26.2353 195.668 28.4599 193.537 29.1876C191.707 29.8218 189.493 29.3955 188.495 28.2208C188.058 27.7011 187.788 26.8486 187.871 26.2457C188.121 24.5824 189.638 23.3142 191.78 22.9607C192.611 22.8256 194.441 22.9295 195.377 23.1686Z" fill="#5E6973"/>
<path d="M245.774 12.7625C245.753 12.7833 245.732 17.2014 245.732 22.5654V32.3164H247.604H249.475V22.5446C249.475 17.1702 249.444 12.7625 249.402 12.7625C249.163 12.7209 245.816 12.7209 245.774 12.7625Z" fill="#5E6973"/>
<path d="M210.388 13.0951C210.388 13.1471 212.093 17.139 214.172 21.9729L217.966 30.7675L215.877 35.6741C214.733 38.377 213.777 40.6432 213.745 40.7159C213.704 40.8199 214.078 40.8407 215.575 40.8199L217.457 40.7887L223.34 27.0667C226.584 19.5195 229.245 13.2719 229.276 13.1783C229.318 13.0328 229.11 13.0224 227.488 13.0224L225.648 13.0328L225.42 13.5006C225.295 13.7604 223.995 16.7439 222.54 20.1225C221.085 23.5114 219.879 26.287 219.848 26.287C219.816 26.287 218.496 23.3035 216.926 19.6547L214.068 13.0328L212.228 13.0224C211.219 13.0224 210.388 13.0535 210.388 13.0951Z" fill="#5E6973"/>
</svg>
