<svg width="28" height="28" viewBox="0 0 28 28" fill="none" xmlns="http://www.w3.org/2000/svg">
<path fill-rule="evenodd" clip-rule="evenodd" d="M26.4804 14.3211C26.4804 13.3661 26.3947 12.4479 26.2355 11.5664H13.5516V16.7758H20.7996C20.4874 18.4593 19.5385 19.8856 18.1122 20.8406V24.2197H22.4646C25.0112 21.8751 26.4804 18.4225 26.4804 14.3211Z" fill="#F3F6FF"/>
<path fill-rule="evenodd" clip-rule="evenodd" d="M13.551 27.4887C17.1872 27.4887 20.2357 26.2827 22.4639 24.2259L18.1115 20.8468C16.9056 21.6548 15.3629 22.1323 13.551 22.1323C10.0433 22.1323 7.07436 19.7633 6.01533 16.5801H1.51599V20.0694C3.73199 24.4708 8.28643 27.4887 13.551 27.4887Z" fill="#F3F6FF"/>
<path fill-rule="evenodd" clip-rule="evenodd" d="M6.01601 16.5778C5.74667 15.7697 5.59363 14.9066 5.59363 14.019C5.59363 13.1314 5.74667 12.2682 6.01601 11.4602V7.97089H1.51667C0.604561 9.78899 0.0842285 11.8458 0.0842285 14.019C0.0842285 16.1921 0.604561 18.249 1.51667 20.0671L6.01601 16.5778Z" fill="#F3F6FF"/>
<path fill-rule="evenodd" clip-rule="evenodd" d="M13.551 5.90726C15.5282 5.90726 17.3035 6.58675 18.6992 7.92125L22.5619 4.05855C20.2296 1.8854 17.181 0.550903 13.551 0.550903C8.28643 0.550903 3.73199 3.56883 1.51599 7.97023L6.01533 11.4595C7.07436 8.2763 10.0433 5.90726 13.551 5.90726Z" fill="#F3F6FF"/>
</svg>
