<svg width="178" height="24" viewBox="0 0 178 24" fill="none" xmlns="http://www.w3.org/2000/svg">
<path d="M81.9343 0.52972C81.5664 0.590923 81.0666 0.779238 80.7601 0.958138C80.0952 1.34889 80.4347 0.849857 72.9183 12.5725C69.094 18.5374 65.9629 23.4383 65.9535 23.4618C65.9441 23.4807 67.0993 23.4995 68.5234 23.4995L71.1075 23.4948L76.7897 14.5074C79.916 9.56416 82.4813 5.52008 82.4954 5.52008C82.519 5.52008 88.635 15.3172 88.6632 15.4067C88.6727 15.4302 86.4234 15.4537 82.8302 15.4584L76.983 15.4726L78.2515 17.4452C78.9494 18.5327 79.5388 19.4319 79.5671 19.446C79.5907 19.4601 82.2502 19.4743 85.4756 19.4696C88.6963 19.4696 91.3699 19.4837 91.4124 19.5025C91.4501 19.5213 92.0254 20.43 92.6856 21.5175L93.8833 23.4948L96.4674 23.4995C97.8867 23.4995 99.0467 23.4901 99.0467 23.4807C99.0467 23.4242 85.0653 1.7114 84.938 1.56546C84.5372 1.11821 83.9431 0.750992 83.3678 0.600338C83.0141 0.506182 82.2691 0.468517 81.9343 0.52972Z" fill="#5E6973"/>
<path d="M10.6315 0.746286C9.7638 0.835737 8.70282 1.07113 7.89647 1.3489C7.24102 1.57487 6.01028 2.1869 5.42084 2.57766C2.85562 4.28191 1.08732 6.88066 0.49788 9.8231C0.323407 10.6846 0.280968 11.1319 0.285683 12.1064C0.285683 13.3728 0.398855 14.192 0.738369 15.3549C1.87009 19.2153 5.10019 22.2566 9.05177 23.1841C10.3438 23.4901 9.92885 23.476 18.3648 23.476C25.4947 23.476 26.0652 23.4713 26.5698 23.3912C28.72 23.057 30.5214 22.2802 32.1576 20.9808C34.4541 19.1588 35.9819 16.4188 36.3497 13.4623C36.4393 12.7373 36.444 11.5509 36.3544 10.8259C35.9253 7.17726 33.808 3.98531 30.6392 2.1869C29.6773 1.64549 28.5409 1.20766 27.4893 0.976973C26.3529 0.727455 26.881 0.741579 18.5299 0.732162C14.2765 0.732162 10.721 0.73687 10.6315 0.746286ZM25.6833 4.78565C28.3805 5.13875 30.6581 6.95128 31.6389 9.51237C31.9501 10.3363 32.0963 11.1601 32.0963 12.1064C32.0963 13.0527 31.9501 13.8766 31.6389 14.7005C30.6251 17.3463 28.1919 19.1965 25.3815 19.4507C24.792 19.5025 11.8009 19.5025 11.2916 19.446C9.49974 19.2624 7.97192 18.5327 6.73175 17.2757C5.68963 16.2211 5.05775 15.063 4.72767 13.58C4.63807 13.1845 4.62393 12.9727 4.62393 12.1064C4.62393 11.2402 4.63807 11.0283 4.72767 10.6329C5.31239 8.00585 7.09484 5.98617 9.58933 5.11992C10.0184 4.96926 10.8012 4.79507 11.2445 4.74799C11.3341 4.73858 14.5029 4.72445 18.28 4.72445C24.1272 4.71504 25.2306 4.72445 25.6833 4.78565Z" fill="#5E6973"/>
<path d="M38.7829 12.1064V23.4995H40.9756H43.1683V14.1073V4.71503L50.7744 4.72445C59.2858 4.73857 58.5313 4.71033 59.3188 5.08696C60.6203 5.7084 61.4172 6.97011 61.4172 8.41073C61.4172 10.0255 60.4317 11.3861 58.8709 11.9275L58.4229 12.0829L51.9014 12.1064L45.3799 12.13L51.9249 17.8124L58.47 23.4995H61.6436C63.3836 23.4995 64.8124 23.4901 64.8124 23.4807C64.8124 23.4713 62.8366 21.8141 60.427 19.7991L56.0416 16.1317L57.4892 16.1034C59.0265 16.0705 59.3565 16.0328 60.1676 15.8021C62.6574 15.0818 64.5813 13.2316 65.3735 10.8023C65.6611 9.92667 65.7319 9.44646 65.7319 8.41073C65.7319 7.37499 65.6611 6.89479 65.3735 6.01912C64.5106 3.3827 62.3462 1.46188 59.5405 0.840441L59.083 0.741575L48.9353 0.727451L38.7829 0.713327V12.1064Z" fill="#5E6973"/>
<path d="M107.204 0.746279C106.011 0.868685 104.814 1.1747 103.715 1.64078C103.05 1.92325 102.626 2.15865 101.923 2.62002C99.5843 4.16421 97.8773 6.55581 97.1841 9.25814C96.9012 10.3692 96.854 10.7694 96.854 12.13C96.8587 13.4952 96.92 14.0084 97.2312 15.1336C98.3347 19.1447 101.555 22.2284 105.648 23.1888C106.917 23.4901 106.507 23.476 114.532 23.476H121.837L123.105 21.5081C123.803 20.4206 124.369 19.5261 124.355 19.5166C124.345 19.5072 120.724 19.4978 116.301 19.4931C111.882 19.4884 108.077 19.4696 107.846 19.446C104.677 19.14 102.083 16.8849 101.334 13.7871C100.758 11.4144 101.456 8.84385 103.177 7.0219C104.135 6.0097 105.37 5.28939 106.775 4.92689C107.577 4.71974 107.733 4.71503 114.778 4.71503H121.478L122.506 3.10022C123.077 2.21514 123.652 1.31594 123.789 1.09937L124.039 0.713324L115.707 0.72274C111.118 0.72274 107.294 0.736864 107.204 0.746279Z" fill="#5E6973"/>
<path d="M126.444 11.184C126.444 21.3295 126.448 21.6638 126.533 21.9416C126.703 22.4783 127.127 22.9914 127.613 23.2362C128.16 23.514 127.542 23.4999 138.591 23.4999H148.738L150.016 21.5084L151.299 19.5217L141.066 19.5076L130.829 19.4982V10.1059V0.713696H128.636H126.444V11.184Z" fill="#5E6973"/>
<path d="M160.725 0.746372C159.136 0.906441 157.523 1.40548 156.222 2.1352C155.236 2.68602 154.501 3.24626 153.676 4.07485C151.855 5.8968 150.761 8.13776 150.417 10.7412C150.309 11.5698 150.346 13.1705 150.493 13.985C150.79 15.6468 151.341 17.0357 152.261 18.4151C153.926 20.9197 156.533 22.6663 159.499 23.2642C160.574 23.4808 160.414 23.4761 168.077 23.4761H175.353L176.626 21.5035C177.324 20.4206 177.89 19.5261 177.875 19.5167C177.866 19.5073 174.245 19.4979 169.821 19.4932C165.403 19.4885 161.598 19.4697 161.362 19.4461C158.858 19.206 156.585 17.6571 155.468 15.4256C155.232 14.9548 154.972 14.291 154.972 14.1544C154.972 14.1168 157.41 14.1027 164.309 14.1027C169.449 14.1074 173.679 14.0979 173.716 14.0838C173.754 14.0697 174.358 13.1705 175.056 12.083L176.334 10.1057L165.653 10.0915C156.085 10.0821 154.972 10.0727 154.972 10.0115C154.972 9.88439 155.298 9.08875 155.519 8.67446C156.495 6.83838 158.08 5.56725 160.131 4.97877C161.036 4.71512 161.051 4.71512 168.308 4.71512L174.99 4.71042L176.239 2.78018C176.928 1.7162 177.508 0.81699 177.527 0.779327C177.56 0.722832 176.381 0.713417 169.227 0.722832C164.644 0.722832 160.815 0.736956 160.725 0.746372Z" fill="#5E6973"/>
</svg>
